<svg version="1.1" id="Layer_1" xmlns="http://www.w3.org/2000/svg" xmlns:xlink="http://www.w3.org/1999/xlink" x="0px" y="0px"
	 width="100%" viewBox="0 0 512 512" enable-background="new 0 0 512 512" xml:space="preserve">
<path fill="#000000" opacity="1.000000" stroke="none" 
	d="
M290.000000,513.000000 
	C193.356796,513.000000 97.213585,513.000000 1.035192,513.000000 
	C1.035192,342.398438 1.035192,171.796860 1.035192,1.097646 
	C171.559891,1.097646 342.119843,1.097646 512.839905,1.097646 
	C512.839905,171.666550 512.839905,342.333252 512.839905,513.000000 
	C438.796844,513.000000 364.648407,513.000000 290.000000,513.000000 
M233.755936,417.000732 
	C244.171844,410.285919 254.587753,403.571106 265.693024,396.806122 
	C266.306488,396.256165 266.859131,395.612396 267.542145,395.169800 
	C295.369537,377.138184 323.208618,359.124664 351.690277,340.818542 
	C365.738892,331.770813 380.042328,323.087982 393.733154,313.527863 
	C401.044006,308.422791 408.351929,302.632233 413.806396,295.693115 
	C424.796997,281.710907 428.879761,265.489655 426.135590,247.496857 
	C424.206390,234.847656 419.042755,224.065277 410.934235,214.415680 
	C402.213226,204.037186 390.147888,198.245468 379.116119,191.047913 
	C370.168304,185.210007 361.072693,179.598602 351.765259,173.254807 
	C335.222015,162.511047 318.718018,151.706207 302.121399,141.045563 
	C291.522339,134.237381 280.786224,127.642540 269.823883,120.313637 
	C256.231384,111.493912 242.638855,102.674179 228.731613,93.229660 
	C227.304291,92.472588 225.819153,91.806664 224.458878,90.943871 
	C214.626160,84.707153 204.818695,78.430626 194.349396,71.846085 
	C180.602615,63.915920 166.046295,63.051613 150.178146,66.976440 
	C142.732254,70.870094 134.331482,73.617645 128.021622,78.874809 
	C109.932549,93.945976 102.171196,114.404663 102.096809,137.523911 
	C101.857819,211.807159 101.978081,286.091705 102.051323,360.375671 
	C102.059303,368.469299 102.665123,376.562225 102.988319,384.655701 
	C103.587585,399.662628 108.925865,412.948303 117.983688,424.738251 
	C126.472214,435.787170 137.118851,443.855652 151.401047,447.792511 
	C167.399002,450.745056 182.759613,449.496429 197.693375,440.831543 
	C200.472549,438.884735 203.214630,436.882263 206.037720,435.001373 
	C215.022583,429.015137 224.037613,423.074127 233.755936,417.000732 
z"/>
<path fill="#009ADE" opacity="1.000000" stroke="none" 
	d="
M150.959106,447.116547 
	C137.118851,443.855652 126.472214,435.787170 117.983688,424.738251 
	C108.925865,412.948303 103.587585,399.662628 102.988319,384.655701 
	C102.665123,376.562225 102.059303,368.469299 102.051323,360.375671 
	C101.978081,286.091705 101.857819,211.807159 102.096809,137.523911 
	C102.171196,114.404663 109.932549,93.945976 128.021622,78.874809 
	C134.331482,73.617645 142.732254,70.870094 150.575592,67.401810 
	C150.982147,81.644066 150.944397,95.461311 151.046844,109.277504 
	C151.063766,111.559135 151.694534,113.836205 152.020599,116.476501 
	C148.004181,122.979439 145.908157,129.521942 145.921539,137.041000 
	C146.058884,214.250885 146.085281,291.461304 145.911011,368.671021 
	C145.887741,378.973694 146.130127,388.953003 151.881073,398.277954 
	C151.480255,400.786530 151.043442,402.901337 151.032089,405.018463 
	C150.956833,419.050873 150.972809,433.083801 150.959106,447.116547 
z"/>
<path fill="#07B2EF" opacity="1.000000" stroke="none" 
	d="
M352.042603,173.886749 
	C361.072693,179.598602 370.168304,185.210007 379.116119,191.047913 
	C390.147888,198.245468 402.213226,204.037186 410.934235,214.415680 
	C419.042755,224.065277 424.206390,234.847656 426.135590,247.496857 
	C428.879761,265.489655 424.796997,281.710907 413.806396,295.693115 
	C408.351929,302.632233 401.044006,308.422791 393.733154,313.527863 
	C380.042328,323.087982 365.738892,331.770813 351.198608,340.610474 
	C350.138092,337.683075 349.112915,334.969666 349.077332,332.243347 
	C348.897308,318.458191 348.974640,304.669678 349.101044,290.567688 
	C357.319244,284.873230 365.162476,279.089325 373.532135,274.208038 
	C386.152802,266.847534 386.101318,247.173813 373.643555,239.876434 
	C365.837585,235.303970 358.532349,229.876633 351.001923,224.374664 
	C351.001038,209.507111 350.955627,195.097443 351.047028,180.688644 
	C351.061401,178.419327 351.695190,176.153946 352.042603,173.886749 
z"/>
<path fill="#02AFEE" opacity="1.000000" stroke="none" 
	d="
M348.961731,290.882324 
	C348.974640,304.669678 348.897308,318.458191 349.077332,332.243347 
	C349.112915,334.969666 350.138092,337.683075 350.876587,340.755646 
	C323.208618,359.124664 295.369537,377.138184 267.542145,395.169800 
	C266.859131,395.612396 266.306488,396.256165 265.358643,396.414001 
	C265.345856,393.735718 265.927765,391.451599 265.945557,389.163116 
	C266.039429,377.088776 266.098175,365.011505 265.900146,352.939697 
	C265.861389,350.577423 264.636230,348.234619 264.099182,345.568848 
	C280.833923,334.502167 297.398346,323.703796 314.031555,313.012390 
	C325.626129,305.559753 337.314972,298.253815 348.961731,290.882324 
z"/>
<path fill="#03AFEE" opacity="1.000000" stroke="none" 
	d="
M351.903931,173.570770 
	C351.695190,176.153946 351.061401,178.419327 351.047028,180.688644 
	C350.955627,195.097443 351.001038,209.507111 350.657928,224.346832 
	C341.624207,219.104874 332.968506,213.378647 324.234467,207.774521 
	C314.398010,201.463028 304.406860,195.389603 294.638794,188.975342 
	C285.307739,182.848038 276.176910,176.415756 267.206970,169.813110 
	C267.970306,167.490173 268.906494,165.476562 268.929932,163.452362 
	C269.070099,151.359146 268.947845,139.263031 269.050079,127.169037 
	C269.067657,125.093864 269.741089,123.024239 270.111572,120.952057 
	C280.786224,127.642540 291.522339,134.237381 302.121399,141.045563 
	C318.718018,151.706207 335.222015,162.511047 351.903931,173.570770 
z"/>
<path fill="#00A0E3" opacity="1.000000" stroke="none" 
	d="
M151.180069,447.454529 
	C150.972809,433.083801 150.956833,419.050873 151.032089,405.018463 
	C151.043442,402.901337 151.480255,400.786530 152.190231,398.421387 
	C160.033127,406.365784 168.303589,408.856476 178.076981,400.651337 
	C183.226303,396.328278 189.413437,393.241486 195.466415,389.912598 
	C196.200302,392.299896 196.931854,394.368774 196.945938,396.442566 
	C197.046494,411.252655 197.000809,426.063751 197.001633,440.874512 
	C182.759613,449.496429 167.399002,450.745056 151.180069,447.454529 
z"/>
<path fill="#00AAEB" opacity="1.000000" stroke="none" 
	d="
M269.967712,120.632843 
	C269.741089,123.024239 269.067657,125.093864 269.050079,127.169037 
	C268.947845,139.263031 269.070099,151.359146 268.929932,163.452362 
	C268.906494,165.476562 267.970306,167.490173 266.847229,169.759186 
	C264.724274,169.102509 263.170502,168.254715 261.702026,167.278610 
	C251.111176,160.238785 240.537613,153.172989 229.967361,145.639587 
	C229.666214,128.060669 229.356277,110.957558 229.046341,93.854446 
	C242.638855,102.674179 256.231384,111.493912 269.967712,120.632843 
z"/>
<path fill="#00A0E3" opacity="1.000000" stroke="none" 
	d="
M152.041626,116.115379 
	C151.694534,113.836205 151.063766,111.559135 151.046844,109.277504 
	C150.944397,95.461311 150.982147,81.644066 150.963013,67.350639 
	C166.046295,63.051613 180.602615,63.915920 194.583069,72.403160 
	C194.544601,75.260323 194.052444,77.558937 194.037140,79.860733 
	C193.957535,91.845627 194.101486,103.833038 193.902054,115.815147 
	C193.867310,117.903496 192.563431,119.970726 191.536774,121.899452 
	C185.555756,118.079872 179.895203,114.390633 174.207855,110.743187 
	C170.028412,108.062813 165.546783,106.878685 161.018799,109.548553 
	C157.840683,111.422501 155.021240,113.904762 152.041626,116.115379 
z"/>
<path fill="#00A5E7" opacity="1.000000" stroke="none" 
	d="
M191.845734,122.047707 
	C192.563431,119.970726 193.867310,117.903496 193.902054,115.815147 
	C194.101486,103.833038 193.957535,91.845627 194.037140,79.860733 
	C194.052444,77.558937 194.544601,75.260323 194.909988,72.563477 
	C204.818695,78.430626 214.626160,84.707153 224.458878,90.943871 
	C225.819153,91.806664 227.304291,92.472588 228.888977,93.542053 
	C229.356277,110.957558 229.666214,128.060669 229.606079,145.586365 
	C216.772583,138.021866 204.309158,130.034790 191.845734,122.047707 
z"/>
<path fill="#00A6E8" opacity="1.000000" stroke="none" 
	d="
M197.347504,440.853027 
	C197.000809,426.063751 197.046494,411.252655 196.945938,396.442566 
	C196.931854,394.368774 196.200302,392.299896 195.741089,389.658661 
	C207.789261,381.447876 219.897186,373.807190 232.003983,366.624695 
	C232.001892,379.164001 231.907349,391.246246 232.047729,403.325714 
	C232.101166,407.925598 232.693985,412.519165 233.040970,417.115631 
	C224.037613,423.074127 215.022583,429.015137 206.037720,435.001373 
	C203.214630,436.882263 200.472549,438.884735 197.347504,440.853027 
z"/>
<path fill="#00AAEB" opacity="1.000000" stroke="none" 
	d="
M233.398453,417.058167 
	C232.693985,412.519165 232.101166,407.925598 232.047729,403.325714 
	C231.907349,391.246246 232.001892,379.164001 232.321136,366.473267 
	C240.171844,360.895203 247.677078,355.884796 255.250763,350.980042 
	C258.070892,349.153778 261.051056,347.574615 263.958252,345.882812 
	C264.636230,348.234619 265.861389,350.577423 265.900146,352.939697 
	C266.098175,365.011505 266.039429,377.088776 265.945557,389.163116 
	C265.927765,391.451599 265.345856,393.735718 265.013977,396.439087 
	C254.587753,403.571106 244.171844,410.285919 233.398453,417.058167 
z"/>
<path fill="#000000" opacity="1.000000" stroke="none" 
	d="
M264.099182,345.568848 
	C261.051056,347.574615 258.070892,349.153778 255.250763,350.980042 
	C247.677078,355.884796 240.171844,360.895203 232.322266,366.015076 
	C219.897186,373.807190 207.789261,381.447876 195.406647,389.342529 
	C189.413437,393.241486 183.226303,396.328278 178.076981,400.651337 
	C168.303589,408.856476 160.033127,406.365784 152.351044,398.028687 
	C146.130127,388.953003 145.887741,378.973694 145.911011,368.671021 
	C146.085281,291.461304 146.058884,214.250885 145.921539,137.041000 
	C145.908157,129.521942 148.004181,122.979439 152.020599,116.476501 
	C155.021240,113.904762 157.840683,111.422501 161.018799,109.548553 
	C165.546783,106.878685 170.028412,108.062813 174.207855,110.743187 
	C179.895203,114.390633 185.555756,118.079872 191.536774,121.899452 
	C204.309158,130.034790 216.772583,138.021866 229.597290,146.062180 
	C240.537613,153.172989 251.111176,160.238785 261.702026,167.278610 
	C263.170502,168.254715 264.724274,169.102509 266.598328,170.063599 
	C276.176910,176.415756 285.307739,182.848038 294.638794,188.975342 
	C304.406860,195.389603 314.398010,201.463028 324.234467,207.774521 
	C332.968506,213.378647 341.624207,219.104874 350.658478,224.805023 
	C358.532349,229.876633 365.837585,235.303970 373.643555,239.876434 
	C386.101318,247.173813 386.152802,266.847534 373.532135,274.208038 
	C365.162476,279.089325 357.319244,284.873230 349.101013,290.567688 
	C337.314972,298.253815 325.626129,305.559753 314.031555,313.012390 
	C297.398346,323.703796 280.833923,334.502167 264.099182,345.568848 
z"/>
</svg>