<?xml version="1.0" encoding="UTF-8"?>
<svg version="1.1" xmlns="http://www.w3.org/2000/svg" width="512" height="512">
<path d="M0 0 C3.76017415 0.01071344 7.51986964 0.00005182 11.2800293 -0.01269531 C63.04773971 -0.04423903 63.04773971 -0.04423903 78.23901367 14.02636719 C81.32824358 17.3778902 82.63725402 19.6891338 83.33276367 24.26074219 C84.97245117 24.29941406 84.97245117 24.29941406 86.64526367 24.33886719 C149.29272491 26.39683147 196.17684306 55.97990437 239.24780273 98.93554688 C241.48264733 101.16051588 243.72795412 103.37459218 245.97338867 105.58886719 C247.40893766 107.01789886 248.84385731 108.44756308 250.27807617 109.87792969 C250.94364532 110.53115204 251.60921448 111.18437439 252.29495239 111.85739136 C257.46487299 117.05239762 260.76028548 121.60484082 260.77026367 129.19824219 C260.78959961 130.17664063 260.80893555 131.15503906 260.82885742 132.16308594 C259.72911031 139.03001083 255.23821415 143.79741761 250.46606445 148.515625 C249.88990387 149.09704254 249.31374329 149.67846008 248.72012329 150.27749634 C246.83020468 152.18052453 244.92963696 154.07247756 243.02807617 155.96386719 C241.7025136 157.29145281 240.37739646 158.61948331 239.05270386 159.94793701 C236.28192793 162.72312383 233.50582929 165.49284249 230.72583008 168.25878906 C227.16928428 171.79822727 223.62639986 175.35098681 220.08738899 178.90794754 C217.35613649 181.65005686 214.61775878 184.38496076 211.87719345 187.1177597 C210.56810382 188.42485346 209.26122422 189.7341646 207.95663834 191.04575348 C206.13101917 192.87901996 204.29600779 194.70234819 202.45825195 196.5234375 C201.92506348 197.06269867 201.391875 197.60195984 200.8425293 198.15756226 C195.99357771 202.92565787 191.44795091 205.68408299 184.58276367 205.82324219 C177.89483922 205.68165475 173.62040497 203.13366352 168.33276367 199.26074219 C167.34276367 198.60074219 166.35276367 197.94074219 165.33276367 197.26074219 C165.33129846 198.0883312 165.33129846 198.0883312 165.32980365 198.93263918 C165.27152975 231.63349265 165.19773157 264.33426989 165.10377739 297.0350397 C165.09250925 300.9615919 165.08137079 304.88814446 165.0703125 308.81469727 C165.06810882 309.59640216 165.06590513 310.37810706 165.06363467 311.18349998 C165.02826371 323.84021948 165.00339844 336.49693892 164.98241665 349.15368951 C164.96065299 362.14099539 164.9275972 375.12823714 164.88406211 388.11548847 C164.85755511 396.12911587 164.83985274 404.14266336 164.83341763 412.15633243 C164.82753934 418.30156075 164.80594906 424.44664258 164.77848816 430.59181023 C164.76968596 433.1125093 164.76598985 435.6332321 164.76775551 438.15394592 C164.76940433 441.59365079 164.75274141 445.0327988 164.73149109 448.47242737 C164.73876245 449.97098521 164.73876245 449.97098521 164.74618071 451.49981695 C164.66519173 459.43541814 163.04290269 465.38745634 157.33276367 471.26074219 C151.66333655 475.0822331 146.08876739 474.68644899 139.50369263 474.65515137 C138.30364621 474.66124247 137.10359979 474.66733357 135.86718833 474.67360926 C132.54395879 474.6873654 129.22122406 474.68769447 125.89800334 474.68223429 C122.31098068 474.679562 118.72402103 474.6940996 115.13702393 474.70632935 C108.11262146 474.72737716 101.08830155 474.73192457 94.06387128 474.73014146 C88.35373679 474.72883351 82.64362803 474.73263966 76.93349838 474.74006653 C75.28830111 474.74216574 73.64310384 474.74426334 71.99790657 474.74635935 C70.76958942 474.74792464 70.76958942 474.74792464 69.51645778 474.74952155 C54.03145948 474.7684213 38.54650857 474.76737454 23.06150351 474.76055223 C8.89905563 474.75497691 -5.26321135 474.77580214 -19.42561696 474.80891269 C-33.97138076 474.84265528 -48.5170579 474.85781733 -63.06286156 474.85319567 C-71.2277033 474.85095155 -79.39237784 474.85618559 -87.55718613 474.88108826 C-94.5082812 474.90210876 -101.45911738 474.90568608 -108.41022311 474.88678867 C-111.95564581 474.87763526 -115.50058592 474.8764748 -119.04597092 474.89714432 C-122.89227932 474.9193199 -126.73786746 474.90262619 -130.584198 474.88220215 C-131.70074135 474.89472 -132.8172847 474.90723784 -133.96766269 474.92013502 C-140.75364127 474.84283387 -145.4797051 473.81024071 -150.66723633 469.26074219 C-154.50065707 464.44439306 -155.78566008 460.7260996 -155.80590153 454.67679977 C-155.81137597 453.75618594 -155.81685042 452.8355721 -155.82249075 451.88706088 C-155.82346886 450.87928379 -155.82444697 449.87150671 -155.82545471 448.83319092 C-155.83039269 447.7598825 -155.83533067 446.68657408 -155.84041828 445.58074117 C-155.8558166 441.97244882 -155.86416026 438.36417431 -155.87255859 434.75585938 C-155.88213528 432.1740198 -155.89214523 429.5921818 -155.90255737 427.01034546 C-155.92431283 421.44573458 -155.94246072 415.8811213 -155.95816231 410.31649017 C-155.9808694 402.27095645 -156.00901107 394.22544897 -156.03848159 386.17993751 C-156.08614719 373.12680587 -156.12941418 360.07366349 -156.16992188 347.02050781 C-156.20928205 334.34016078 -156.25070953 321.65982327 -156.29492188 308.97949219 C-156.29764615 308.19795024 -156.30037042 307.41640829 -156.30317724 306.61118326 C-156.31685681 302.69043901 -156.33057707 298.7696949 -156.34431756 294.84895086 C-156.45826613 262.31956764 -156.56507907 229.79016461 -156.66723633 197.26074219 C-157.82352539 198.00130859 -157.82352539 198.00130859 -159.00317383 198.75683594 C-160.00606445 199.3975 -161.00895508 200.03816406 -162.04223633 200.69824219 C-163.53883789 201.65537109 -163.53883789 201.65537109 -165.06567383 202.63183594 C-168.82368546 204.9848252 -170.91528798 205.46740841 -175.35473633 205.57324219 C-176.87647461 205.62931641 -176.87647461 205.62931641 -178.42895508 205.68652344 C-185.38518792 204.7718921 -190.17517279 200.19526019 -194.92211914 195.39404297 C-195.79424545 194.52980209 -195.79424545 194.52980209 -196.68399048 193.64810181 C-198.58701867 191.7581832 -200.4789717 189.85761547 -202.37036133 187.95605469 C-203.69794695 186.63049211 -205.02597745 185.30537497 -206.35443115 183.98068237 C-209.12961797 181.20990644 -211.89933663 178.4338078 -214.6652832 175.65380859 C-218.20472141 172.09726279 -221.75748095 168.55437838 -225.31444168 165.01536751 C-228.056551 162.284115 -230.7914549 159.5457373 -233.52425385 156.80517197 C-234.8313476 155.49608234 -236.14065874 154.18920273 -237.45224762 152.88461685 C-239.2855141 151.05899769 -241.10884233 149.2239863 -242.92993164 147.38623047 C-243.46919281 146.85304199 -244.00845398 146.31985352 -244.5640564 145.77050781 C-249.43672775 140.81520713 -252.09552855 136.33035868 -252.10473633 129.32324219 C-252.12407227 128.34484375 -252.1434082 127.36644531 -252.16333008 126.35839844 C-250.84281586 118.11298286 -244.59346356 112.75987664 -238.91333008 107.14355469 C-238.05723648 106.28696259 -237.20114288 105.43037048 -236.31910706 104.54782104 C-234.50962766 102.74067587 -232.69646954 100.9372076 -230.87988281 99.13720703 C-228.12958755 96.41038134 -225.3927228 93.67061695 -222.6574707 90.92871094 C-220.88937883 89.166201 -219.12052238 87.40445766 -217.35083008 85.64355469 C-216.54520126 84.83701447 -215.73957245 84.03047424 -214.90953064 83.19949341 C-200.34568308 68.81202092 -183.85090403 56.63728032 -165.66723633 47.26074219 C-164.93520996 46.88175781 -164.20318359 46.50277344 -163.44897461 46.11230469 C-135.33941458 31.74720477 -106.04483926 25.53190307 -74.66723633 24.26074219 C-74.56024414 23.51695313 -74.45325195 22.77316406 -74.34301758 22.00683594 C-72.94661479 16.33243616 -68.75979096 12.60552514 -63.95629883 9.51855469 C-44.3692276 -0.8147821 -21.55377083 -0.07294475 0 0 Z " fill="#F78B2A" transform="translate(251.667236328125,18.7392578125)"/>
<path d="M0 0 C105.6 0 211.2 0 320 0 C320.0928125 51.7584375 320.0928125 51.7584375 320.1875 104.5625 C320.21481201 115.46224854 320.24212402 126.36199707 320.27026367 137.59204102 C320.28381348 150.89050293 320.28381348 150.89050293 320.28633118 157.11387634 C320.28912885 161.46528196 320.30038214 165.81657805 320.31672668 170.16795349 C320.33729758 175.71798665 320.34347462 181.26786044 320.33921683 186.81792819 C320.34010722 188.85505276 320.34605987 190.89218287 320.35764539 192.92927468 C320.37257208 195.68165337 320.3689686 198.4334133 320.36076355 201.18580627 C320.37387054 202.38052504 320.37387054 202.38052504 320.38724232 203.59937954 C320.32882742 210.89247486 318.19267397 216.65896392 313 222 C307.33057288 225.82149091 301.75600372 225.42570681 295.17092896 225.39440918 C293.97088254 225.40050028 292.77083612 225.40659139 291.53442466 225.41286707 C288.21119512 225.42662322 284.88846039 225.42695228 281.56523967 225.4214921 C277.97821701 225.41881981 274.39125736 225.43335741 270.80426025 225.44558716 C263.77985779 225.46663497 256.75553788 225.47118239 249.73110761 225.46939927 C244.02097311 225.46809132 238.31086436 225.47189747 232.60073471 225.47932434 C230.95553744 225.48142355 229.31034017 225.48352115 227.66514289 225.48561716 C226.43682575 225.48718245 226.43682575 225.48718245 225.18369411 225.48877937 C209.69869581 225.50767911 194.2137449 225.50663235 178.72873984 225.49981004 C164.56629196 225.49423472 150.40402497 225.51505995 136.24161936 225.54817051 C121.69585557 225.58191309 107.15017843 225.59707514 92.60437477 225.59245348 C84.43953303 225.59020937 76.27485849 225.5954434 68.1100502 225.62034607 C61.15895513 225.64136657 54.20811895 225.64494389 47.25701322 225.62604648 C43.71159052 225.61689308 40.16665041 225.61573261 36.62126541 225.63640213 C32.774957 225.65857772 28.92936887 225.641884 25.08303833 225.62145996 C23.40822331 225.64023673 23.40822331 225.64023673 21.69957364 225.65939283 C14.91359506 225.58209168 10.18753123 224.54949852 5 220 C0.15412369 213.91159131 -0.14761066 209.10927987 -0.12025452 201.54656982 C-0.12153854 200.25823746 -0.12153854 200.25823746 -0.12284851 198.94387817 C-0.12450586 196.05208269 -0.11897653 193.1603449 -0.11352539 190.26855469 C-0.11321912 188.16548286 -0.11335244 186.06241093 -0.11389065 183.95933914 C-0.1141167 178.31994011 -0.10831465 172.68056224 -0.10128021 167.04116821 C-0.09559149 161.75221692 -0.09531743 156.46327081 -0.09460449 151.17431641 C-0.08935409 135.69954146 -0.07539298 120.22477046 -0.0625 104.75 C-0.041875 70.1825 -0.02125 35.615 0 0 Z " fill="#75D1FB" transform="translate(96,268)"/>
<path d="M0 0 C8.218649 0.00472555 16.43729598 0.00706427 24.6559462 0.0082581 C91.7705165 0.01990776 158.87756052 0.17899777 225.98636001 1.13057256 C227.21826703 25.76871292 226.98636001 50.46165374 226.98636001 75.13057256 C121.38636001 75.13057256 15.78636001 75.13057256 -93.01363999 75.13057256 C-93.34363999 57.97057256 -93.67363999 40.81057256 -94.01363999 23.13057256 C-97.64363999 25.44057256 -101.27363999 27.75057256 -105.01363999 30.13057256 C-107.6553322 31.45141867 -109.7498043 31.37271449 -112.70113999 31.44307256 C-114.22287827 31.49914678 -114.22287827 31.49914678 -115.77535874 31.55635381 C-122.70644993 30.64502819 -127.46611925 26.11983987 -132.16598374 21.30635381 C-132.71098023 20.75948415 -133.25597672 20.21261449 -133.81748825 19.64917302 C-134.95616164 18.50382846 -136.09125812 17.35491744 -137.2228685 16.20259404 C-138.96361314 14.43037387 -140.71510468 12.66934861 -142.46871811 10.90986943 C-143.5767719 9.79265727 -144.68421657 8.67484058 -145.79098374 7.55635381 C-146.31586884 7.02721883 -146.84075394 6.49808385 -147.38154465 5.95291448 C-151.01363999 2.24780451 -151.01363999 2.24780451 -151.01363999 1.13057256 C-100.6788517 -0.06241203 -50.34603332 -0.02896844 0 0 Z " fill="#F6D85D" transform="translate(189.01363998651505,192.86942744255066)"/>
<path d="M0 0 C105.6 0 211.2 0 320 0 C320 49.5 320 99 320 150 C319.67 150 319.34 150 319 150 C319 125.25 319 100.5 319 75 C213.73 75 108.46 75 0 75 C0 50.25 0 25.5 0 0 Z " fill="#57BF6B" transform="translate(96,268)"/>
<path d="M0 0 C1.4484432 0.00056958 1.4484432 0.00056958 2.92614788 0.00115067 C4.03585872 -0.00084038 5.14556956 -0.00283143 6.288908 -0.00488281 C7.52331672 -0.00196997 8.75772544 0.00094287 10.02954048 0.00394398 C11.32896455 0.00308955 12.62838863 0.00223513 13.96718919 0.00135481 C17.59064132 -0.0008926 21.21406416 0.00313448 24.83751255 0.00813287 C28.73869026 0.01243368 32.63986619 0.01099122 36.54104561 0.0102306 C43.30563765 0.00970513 50.07022009 0.01285434 56.83480972 0.01846844 C66.61538485 0.02658032 76.39595532 0.02919834 86.17653345 0.03045643 C102.04318276 0.03264744 117.90982694 0.03930886 133.77647346 0.04875904 C149.19346539 0.05793189 164.61045592 0.06501335 180.02745003 0.06926686 C180.9770519 0.06952958 181.92665377 0.0697923 182.90503145 0.07006299 C187.66869547 0.07136798 192.43235949 0.0726317 197.19602352 0.07387489 C236.74294467 0.08424904 276.2898601 0.10186868 315.8367762 0.1241985 C315.90647741 7.82626159 315.95968923 15.52829172 315.99221271 23.23059899 C316.00782734 26.80763206 316.02898779 30.38444836 316.06309456 33.9613567 C316.09583938 37.41730508 316.11366078 40.87304576 316.12140793 44.32913738 C316.12959784 46.28055257 316.15299298 48.23188493 316.17666572 50.18317372 C316.17835242 59.12096234 315.3085162 65.46755164 308.8367762 72.1241985 C303.16734908 75.94568941 297.59277991 75.5499053 291.00770515 75.51860768 C289.80765874 75.52469878 288.60761232 75.53078988 287.37120086 75.53706557 C284.04797131 75.55082171 280.72523659 75.55115077 277.40201586 75.5456906 C273.8149932 75.54301831 270.22803356 75.55755591 266.64103645 75.56978565 C259.61663399 75.59083347 252.59231408 75.59538088 245.5678838 75.59359777 C239.85774931 75.59228982 234.14764056 75.59609597 228.43751091 75.60352284 C226.79231364 75.60562205 225.14711637 75.60771965 223.50191909 75.60981566 C222.27360194 75.61138095 222.27360194 75.61138095 221.02047031 75.61297786 C205.53547201 75.6318776 190.05052109 75.63083085 174.56551604 75.62400854 C160.40306815 75.61843322 146.24080117 75.63925845 132.07839556 75.672369 C117.53263177 75.70611159 102.98695462 75.72127364 88.44115096 75.71665198 C80.27630922 75.71440786 72.11163469 75.71964189 63.9468264 75.74454457 C56.99573133 75.76556506 50.04489514 75.76914239 43.09378941 75.75024498 C39.54836672 75.74109157 36.00342661 75.73993111 32.45804161 75.76060063 C28.6117332 75.78277621 24.76614506 75.7660825 20.91981453 75.74565846 C19.80327118 75.75817631 18.68672783 75.77069415 17.53634983 75.78359133 C9.17282362 75.68831985 4.3089645 73.51687365 -1.63661247 67.70745045 C-4.10899405 61.90429286 -3.67263096 56.01296194 -3.58900505 49.79216725 C-3.58407723 48.39066746 -3.5807809 46.98916107 -3.57904106 45.5876537 C-3.57142538 42.66154925 -3.55093214 39.73593824 -3.51991326 36.80998951 C-3.48015646 33.05261444 -3.46227277 29.29555839 -3.45260388 25.53799683 C-3.44265679 21.95601021 -3.42276533 18.37410195 -3.40150505 14.79216725 C-3.3981093 14.1063325 -3.39471356 13.42049774 -3.39121491 12.71388012 C-3.37969086 10.78445036 -3.36016656 8.8550733 -3.34022576 6.92571217 C-3.33038155 5.82684178 -3.32053734 4.72797138 -3.31039482 3.59580189 C-3.10690519 0.17837866 -3.10690519 0.17837866 0 0 Z " fill="#815AAE" transform="translate(100.16322380304337,417.8758015036583)"/>
<path d="M0 0 C39.84839008 -1.81129046 80.94337472 12.6568427 113 36 C113.87664307 36.62745117 113.87664307 36.62745117 114.77099609 37.26757812 C124.05868086 43.97293334 131.67325653 51.70400869 139.33056641 60.18847656 C142.78138848 63.93300709 146.44448185 67.46593472 150.0859375 71.0234375 C152 73 152 73 152 74 C120.00159965 74.82559201 88.00629055 75.46051098 55.99969067 75.83835186 C52.2006227 75.88336428 48.40157572 75.92996113 44.60253906 75.97753906 C43.84638486 75.98698224 43.09023065 75.99642541 42.31116268 76.00615475 C30.14922293 76.16179649 17.99356071 76.44501413 5.83531621 76.77750066 C-6.68952026 77.11709253 -19.21112886 77.31470683 -31.74037766 77.38718581 C-38.76069342 77.43169736 -45.76795467 77.5372463 -52.78356171 77.80628204 C-100.38106143 79.58050508 -100.38106143 79.58050508 -118.26597142 63.38640285 C-125.8412235 56.04391003 -132.59421913 47.99087273 -138.79327989 39.46329665 C-139.95436654 37.85384845 -139.95436654 37.85384845 -142 37 C-141.67 36.34 -141.34 35.68 -141 35 C-140.11699219 35.53109375 -139.23398438 36.0621875 -138.32421875 36.609375 C-131.09139876 40.89714321 -124.11754638 44.64159483 -116 47 C-114.87207031 47.37125 -113.74414062 47.7425 -112.58203125 48.125 C-92.30873047 54.11181522 -63.945058 54.20583313 -44 47 C-43.21399414 46.72091797 -42.42798828 46.44183594 -41.61816406 46.15429688 C-31.44565233 42.43582344 -22.26872543 38.13522704 -14 31 C-13.00806641 30.18982422 -13.00806641 30.18982422 -11.99609375 29.36328125 C-4.92732615 23.05787948 -0.92263503 14.63328991 -0.125 5.25 C-0.05772297 3.50079735 -0.00620739 1.75048496 0 0 Z " fill="#E82C3F" transform="translate(336,44)"/>
<path d="M0 0 C3.76017415 0.01071344 7.51986964 0.00005182 11.2800293 -0.01269531 C63.04773971 -0.04423903 63.04773971 -0.04423903 78.23901367 14.02636719 C81.26487807 17.3091446 82.80037469 19.73543585 83.33276367 24.26074219 C83.99276367 24.59074219 84.65276367 24.92074219 85.33276367 25.26074219 C85.29092485 37.05928917 81.88435309 45.86804759 73.77026367 54.51074219 C65.67730833 62.02648824 56.61963644 66.99128064 46.45776367 71.07324219 C45.77584961 71.35127686 45.09393555 71.62931152 44.39135742 71.91577148 C31.36609667 76.85893017 18.27584311 77.81066247 4.52026367 77.69824219 C3.72939362 77.69520081 2.93852356 77.69215942 2.12368774 77.68902588 C-9.56564968 77.62254623 -20.51911716 77.0671296 -31.66723633 73.26074219 C-32.32369141 73.04111816 -32.98014648 72.82149414 -33.65649414 72.59521484 C-49.83255786 67.06624096 -65.27016444 57.61622679 -73.66723633 42.26074219 C-76.76973649 35.77369639 -76.57823813 28.29741486 -74.54223633 21.51074219 C-68.63123581 11.26500795 -60.40578463 6.66728338 -49.04223633 3.51074219 C-32.80204529 0.09377853 -16.53418153 -0.05595688 0 0 Z " fill="#CFE6FC" transform="translate(251.667236328125,18.7392578125)"/>
<path d="M0 0 C-0.04640625 0.67804687 -0.0928125 1.35609375 -0.140625 2.0546875 C-0.53350198 12.18530107 1.78662422 18.80615026 8.5 26.4375 C10.67114407 28.75363486 12.68049766 30.77623895 15.28125 32.59765625 C15.8484375 33.06042969 16.415625 33.52320313 17 34 C17 34.99 17 35.98 17 37 C17.5862616 37.26127182 18.17252319 37.52254364 18.77655029 37.79173279 C21.13317809 39.07237165 22.68477558 40.43732907 24.57519531 42.33227539 C25.59580048 43.34826561 25.59580048 43.34826561 26.63702393 44.38478088 C27.72161896 45.48015419 27.72161896 45.48015419 28.828125 46.59765625 C29.95163361 47.72185219 29.95163361 47.72185219 31.09783936 48.86875916 C32.67697478 50.45091212 34.25368257 52.0354913 35.828125 53.62231445 C38.24945888 56.06195479 40.67874961 58.49344835 43.109375 60.92382812 C44.64109884 62.46046532 46.17236495 63.99755894 47.703125 65.53515625 C48.43428528 66.26742935 49.16544556 66.99970245 49.91876221 67.75416565 C50.92045441 68.76542763 50.92045441 68.76542763 51.94238281 69.79711914 C52.53432434 70.39287247 53.12626587 70.98862579 53.73614502 71.60243225 C55 73 55 73 55 74 C-13.97 74 -82.94 74 -154 74 C-152.18964117 70.37928234 -150.82155125 68.56471119 -148.03515625 65.76953125 C-147.24077148 64.97095703 -146.44638672 64.17238281 -145.62792969 63.34960938 C-144.78133789 62.51236328 -143.93474609 61.67511719 -143.0625 60.8125 C-142.19657227 59.95333984 -141.33064453 59.09417969 -140.43847656 58.20898438 C-134.54269962 52.40819372 -128.62799665 46.95907663 -122 42 C-120.85528694 41.1148184 -119.71076895 40.2293845 -118.56640625 39.34375 C-109.82946109 32.67110418 -100.76647857 27.03615444 -91 22 C-90.26797363 21.62101562 -89.53594727 21.24203125 -88.78173828 20.8515625 C-64.01763569 8.19612401 -37.4898815 1.0941743 -9.75 -0.6875 C-9.00999756 -0.73608154 -8.26999512 -0.78466309 -7.50756836 -0.8347168 C-2.24702777 -1.12351389 -2.24702777 -1.12351389 0 0 Z " fill="#F6657D" transform="translate(177,44)"/>
<path d="M0 0 C0.66466215 -0.00282738 1.3293243 -0.00565475 2.01412773 -0.00856781 C5.53505711 -0.02345923 9.05594662 -0.03275075 12.5769043 -0.03710938 C15.44812801 -0.04148426 18.31904958 -0.05535121 21.19018555 -0.078125 C58.0018405 -0.3642916 58.0018405 -0.3642916 70.83984375 5.203125 C69.71774053 9.9720637 67.07863523 12.01968147 63.25 14.72265625 C58.97839993 17.34654025 54.46511443 19.29298372 49.83984375 21.203125 C49.17210937 21.5021875 48.504375 21.80125 47.81640625 22.109375 C29.04800682 30.02853088 1.70106801 28.8691904 -17.09179688 21.43945312 C-24.72244466 18.21556242 -31.34137963 14.14839676 -37.16015625 8.203125 C-36.83015625 6.883125 -36.50015625 5.563125 -36.16015625 4.203125 C-34.37108471 3.71435803 -32.57869705 3.23772831 -30.78515625 2.765625 C-29.78742188 2.49878906 -28.7896875 2.23195312 -27.76171875 1.95703125 C-18.58972237 0.03707973 -9.33814768 0.03117259 0 0 Z " fill="#A71037" transform="translate(239.16015625,44.796875)"/>
<path d="M0 0 C19.47 0 38.94 0 59 0 C53.84616347 6.01280928 48.57251414 11.64470637 43 17.25 C42.1234375 18.1471875 41.246875 19.044375 40.34375 19.96875 C39.4878125 20.82984375 38.631875 21.6909375 37.75 22.578125 C36.59757812 23.74456543 36.59757812 23.74456543 35.421875 24.93457031 C29.9628156 29.59017944 25.0979816 30.65332193 18.10546875 30.48828125 C10.83855678 29.34568503 5.58899323 24.47119458 0 20 C0 13.4 0 6.8 0 0 Z " fill="#F1AD3A" transform="translate(415,194)"/>
<path d="M0 0 C19.14 0 38.28 0 58 0 C58 6.93 58 13.86 58 21 C54.03484319 24.91298369 52.74289432 26.18189051 48 28 C47.35160156 28.36996094 46.70320313 28.73992187 46.03515625 29.12109375 C43.34852301 30.28134803 41.10762402 30.33751445 38.1875 30.375 C37.19105469 30.40335938 36.19460937 30.43171875 35.16796875 30.4609375 C28.28175854 29.45899816 23.53230589 24.97368464 18.84765625 20.17578125 C18.30265976 19.62891159 17.75766327 19.08204193 17.19615173 18.51860046 C16.05747834 17.3732559 14.92238186 16.22434488 13.79077148 15.07202148 C12.05002685 13.29980131 10.2985353 11.53877605 8.54492188 9.77929688 C7.43686809 8.66208471 6.32942342 7.54426802 5.22265625 6.42578125 C4.69777115 5.89664627 4.17288605 5.36751129 3.63209534 4.82234192 C0 1.11723195 0 1.11723195 0 0 Z " fill="#EFC750" transform="translate(38,194)"/>
<path d="M0 0 C38.61 0 77.22 0 117 0 C115.95206337 4.19174654 115.08236365 5.21592961 112 8 C110.783125 7.54625 109.56625 7.0925 108.3125 6.625 C97.60040957 3.08935481 86.63182293 2.69861903 75.44140625 2.734375 C74.0810489 2.7330218 72.72069203 2.73107587 71.3603363 2.72857666 C68.53078537 2.72565512 65.70136207 2.72982522 62.87182617 2.73925781 C59.28738746 2.75063956 55.70324886 2.74408194 52.11882114 2.73211288 C49.31570777 2.72480364 46.51266275 2.72722338 43.70954704 2.73236847 C41.75904516 2.73430775 39.80854035 2.72834918 37.85804749 2.72210693 C25.86911415 2.78414642 14.36714779 4.07126228 3 8 C0.9375 5.6875 0.9375 5.6875 -1 3 C-0.67 2.01 -0.34 1.02 0 0 Z " fill="#B3BCD6" transform="translate(198,43)"/>
<path d="M0 0 C39.6 0 79.2 0 120 0 C119.67 0.99 119.34 1.98 119 3 C79.73 3 40.46 3 0 3 C0 2.01 0 1.02 0 0 Z " fill="#C4E0F6" transform="translate(196,41)"/>
<path d="M0 0 C4.60815035 -0.02478935 9.21626153 -0.0429023 13.82446289 -0.05493164 C15.39087602 -0.05994856 16.9572845 -0.06676362 18.52368164 -0.07543945 C20.78012239 -0.08762094 23.03650102 -0.09325481 25.29296875 -0.09765625 C26.33701118 -0.10539818 26.33701118 -0.10539818 27.40214539 -0.11329651 C31.06470152 -0.11371546 34.43868858 0.12851905 38 1 C38 1.33 38 1.66 38 2 C37.14003418 2.06731323 37.14003418 2.06731323 36.26269531 2.13598633 C19.17490988 3.00910966 19.17490988 3.00910966 3 8 C0.9375 5.6875 0.9375 5.6875 -1 3 C-0.67 2.01 -0.34 1.02 0 0 Z " fill="#B8D2EA" transform="translate(198,43)"/>
<path d="M0 0 C3.96 0 7.92 0 12 0 C12 0.33 12 0.66 12 1 C7.05 2.485 7.05 2.485 2 4 C1.34 2.68 0.68 1.36 0 0 Z " fill="#A8B9D2" transform="translate(199,47)"/>
</svg>
